<svg xmlns="http://www.w3.org/2000/svg" width="96" height="96" viewBox="0 0 96 96" fill="none" shape-rendering="crispEdges" role="img" aria-label="promptrouter mark">
<rect width="96" height="96" rx="18" fill="#18112A"/>
<g transform="translate(12,0)">
<rect x="0" y="42" width="12" height="12" fill="#A78BFA"/>
<rect x="12" y="42" width="12" height="12" fill="#A78BFA"/>
<rect x="0" y="54" width="12" height="12" fill="#A78BFA"/>
<rect x="12" y="54" width="12" height="12" fill="#A78BFA"/>
<rect x="24" y="42" width="12" height="12" fill="#A78BFA"/>
<rect x="36" y="30" width="12" height="12" fill="#A78BFA"/>
<rect x="48" y="18" width="12" height="12" fill="#A78BFA"/>
<rect x="60" y="6"  width="12" height="12" fill="#A78BFA"/>
<rect x="72" y="6"  width="12" height="12" fill="#A78BFA"/>
<rect x="60" y="18" width="12" height="12" fill="#A78BFA"/>
<rect x="72" y="18" width="12" height="12" fill="#A78BFA"/>
<rect x="24" y="54" width="12" height="12" fill="#7B6E96"/>
<rect x="36" y="66" width="12" height="12" fill="#7B6E96"/>
<rect x="48" y="78" width="12" height="12" fill="#7B6E96"/>
<rect x="60" y="78" width="12" height="12" fill="#7B6E96"/>
<rect x="72" y="78" width="12" height="12" fill="#7B6E96"/>
<rect x="60" y="66" width="12" height="12" fill="#7B6E96"/>
<rect x="72" y="66" width="12" height="12" fill="#7B6E96"/>
</g>
</svg>
